<svg width="41" height="44" viewBox="0 0 41 44" fill="none" xmlns="http://www.w3.org/2000/svg">
<g clip-path="url(#clip0_2_417)">
<path d="M40.3506 13.0051C39.475 11.5357 38.059 11.174 36.7113 11.01C34.8335 10.8069 32.9136 10.8027 31.062 10.9963C22.5555 12.1116 15.7353 16.2985 10.4854 23.0067C9.15675 24.717 8.05097 26.6458 6.72567 28.6868C5.44865 26.8022 5.48992 24.3541 4.27774 22.3366C3.62365 23.1145 3.7862 23.9068 3.90327 24.5673C4.39426 27.2751 4.92959 30.0045 5.53091 32.7113C5.83101 34.0096 6.36439 34.3795 7.55186 33.9716C10.0371 33.1547 12.03 31.6587 13.4645 29.5064C13.5077 29.4178 13.4395 29.22 13.3702 28.9119C11.2251 28.4687 10.4798 31.1218 8.40638 31.2072C9.1882 27.804 11.1471 25.1396 13.3289 22.6937C15.6199 20.1365 18.1121 17.8421 21.1184 16.1824C24.0587 14.5454 27.2048 13.6121 30.5078 12.9199C33.7881 12.1618 37.033 12.264 40.3506 13.0051Z" fill="black"/>
</g>
<defs>
<clipPath id="clip0_2_417">
<rect width="28.3944" height="34.4457" fill="white" transform="matrix(-0.898735 -0.438492 -0.438492 0.898735 40.6211 12.4507)"/>
</clipPath>
</defs>
</svg>
